<svg id="splitsvg" xmlns="http://www.w3.org/2000/svg" xmlns:xlink="http://www.w3.org/1999/xlink" width="32" height="32"><g id="svgg"><path id="path0" d="M349.083 7.662 C 346.614 7.865,345.305 8.894,344.383 11.354 C 344.233 11.755,343.860 12.414,343.555 12.819 C 342.582 14.108,342.824 14.458,344.722 14.514 C 346.310 14.560,346.424 14.467,347.080 12.583 C 348.130 9.565,350.913 9.160,353.360 11.671 C 355.389 13.752,354.765 16.347,351.917 17.679 C 350.875 18.166,350.332 18.581,349.981 19.157 C 349.667 19.674,348.487 20.331,347.381 20.606 C 346.783 20.755,345.838 21.363,345.835 21.601 C 345.834 21.766,344.974 22.976,344.374 23.657 C 342.861 25.377,342.582 26.489,343.181 28.426 C 343.443 29.275,345.126 29.500,351.197 29.500 C 357.012 29.500,356.667 29.619,356.667 27.622 C 356.667 25.998,356.926 26.098,352.475 26.000 C 348.339 25.909,348.301 25.899,347.733 24.800 C 347.170 23.712,347.392 23.458,349.750 22.491 C 350.666 22.115,351.247 21.755,351.607 21.341 C 351.990 20.901,352.367 20.678,353.010 20.513 C 353.915 20.282,355.222 19.280,355.416 18.670 C 355.468 18.505,355.805 18.176,356.165 17.938 C 357.802 16.854,357.484 9.667,355.799 9.667 C 355.702 9.667,355.269 9.286,354.836 8.820 C 354.069 7.994,352.105 7.385,350.667 7.527 C 350.529 7.541,349.817 7.601,349.083 7.662 M374.333 7.660 C 371.957 7.869,370.271 9.246,369.413 11.676 C 369.279 12.058,368.944 12.626,368.670 12.939 C 368.396 13.251,368.138 13.673,368.098 13.878 C 367.725 15.756,367.641 17.044,367.728 19.589 C 367.865 23.582,367.914 23.855,368.658 24.703 C 369.002 25.096,369.437 25.763,369.623 26.187 C 369.992 27.025,371.082 28.333,371.410 28.333 C 371.523 28.333,371.758 28.491,371.932 28.684 C 373.652 30.584,377.521 30.287,379.181 28.128 C 379.482 27.737,380.152 26.929,380.671 26.333 C 382.181 24.598,382.382 23.658,382.396 18.250 C 382.408 13.582,381.924 10.833,381.089 10.833 C 380.759 10.833,379.823 9.802,379.406 8.979 C 379.186 8.546,378.874 8.150,378.712 8.100 C 378.151 7.926,375.978 7.500,375.781 7.525 C 375.672 7.539,375.021 7.600,374.333 7.660 M352.126 8.409 C 353.829 8.709,354.003 8.800,353.818 9.292 C 353.559 9.980,347.547 9.797,347.277 9.092 C 347.144 8.747,347.968 8.454,349.417 8.331 C 350.150 8.269,350.750 8.207,350.750 8.193 C 350.750 8.179,351.369 8.276,352.126 8.409 M377.264 8.526 C 378.568 8.905,378.658 8.985,378.238 9.405 C 377.782 9.860,373.524 9.782,372.920 9.306 L 372.462 8.946 372.939 8.683 C 373.202 8.539,373.979 8.376,374.667 8.321 C 375.354 8.267,375.942 8.209,375.973 8.194 C 376.004 8.179,376.585 8.328,377.264 8.526 M346.494 11.310 C 346.491 11.552,346.358 12.027,346.197 12.365 L 345.906 12.980 345.718 12.532 C 345.359 11.677,345.332 11.398,345.577 11.075 C 345.712 10.896,345.828 10.600,345.834 10.417 C 345.851 9.878,346.501 10.757,346.494 11.310 M379.067 11.306 C 379.138 11.422,379.082 11.500,378.927 11.500 C 378.729 11.500,378.671 11.329,378.684 10.792 C 378.700 10.121,378.707 10.111,378.824 10.598 C 378.891 10.881,379.001 11.200,379.067 11.306 M371.599 11.546 C 371.547 11.807,371.393 12.180,371.256 12.375 C 370.813 13.008,370.419 11.768,370.798 10.932 L 371.079 10.312 371.387 10.691 C 371.596 10.950,371.664 11.222,371.599 11.546 M376.840 10.587 C 377.110 10.726,377.479 11.131,377.660 11.487 C 377.842 11.843,378.252 12.350,378.572 12.613 C 379.545 13.416,379.692 14.011,379.857 17.833 C 380.066 22.701,379.927 23.254,378.035 25.042 C 377.430 25.615,376.758 26.252,376.543 26.458 C 376.094 26.889,375.914 26.905,374.589 26.639 C 373.367 26.394,372.752 25.807,371.790 23.969 C 371.401 23.227,370.956 22.387,370.800 22.102 C 370.244 21.087,370.422 15.610,371.025 15.165 C 371.088 15.118,371.288 14.706,371.469 14.248 C 371.650 13.791,371.993 12.990,372.232 12.469 C 372.471 11.948,372.667 11.448,372.667 11.359 C 372.667 10.478,375.586 9.938,376.840 10.587 M356.509 12.265 C 356.917 14.030,356.585 17.167,355.990 17.167 C 355.409 17.167,355.013 16.402,355.186 15.618 C 355.284 15.179,355.338 14.035,355.307 13.076 C 355.250 11.344,355.253 11.332,355.667 11.191 C 356.162 11.022,356.247 11.130,356.509 12.265 M381.772 15.166 C 382.164 17.894,381.750 24.000,381.173 24.000 C 380.521 24.000,380.329 14.631,380.951 13.167 L 381.198 12.583 381.359 12.999 C 381.447 13.228,381.633 14.203,381.772 15.166 M368.994 18.864 C 368.998 20.450,368.925 21.663,368.810 21.947 L 368.620 22.417 368.493 22.000 C 368.335 21.481,368.295 16.735,368.442 16.000 L 368.550 15.459 368.769 15.855 C 368.923 16.133,368.990 17.025,368.994 18.864 M354.180 18.453 C 354.383 19.453,353.441 19.805,351.875 19.311 C 351.134 19.078,351.179 18.996,352.375 18.385 C 353.669 17.724,354.035 17.738,354.180 18.453 M349.711 21.311 C 350.065 21.665,348.381 22.070,347.891 21.749 L 347.443 21.455 348.003 21.165 C 348.564 20.875,349.341 20.941,349.711 21.311 M346.333 25.000 C 346.333 26.675,346.211 26.872,345.353 26.579 C 344.964 26.445,344.868 26.356,345.043 26.288 C 345.221 26.220,345.334 25.827,345.419 24.977 C 345.657 22.604,346.333 22.621,346.333 25.000 M371.856 26.097 C 372.157 26.428,372.158 26.455,371.878 26.696 C 371.059 27.400,370.544 26.932,370.768 25.688 C 370.927 24.805,371.021 24.730,371.295 25.268 C 371.430 25.533,371.683 25.906,371.856 26.097 M379.167 26.500 C 379.167 27.061,378.728 27.228,378.321 26.821 L 377.953 26.453 378.349 26.155 C 378.788 25.824,379.167 25.984,379.167 26.500 M361.058 27.667 C 361.058 28.446,361.087 28.765,361.122 28.375 C 361.157 27.985,361.157 27.348,361.122 26.958 C 361.087 26.569,361.058 26.887,361.058 27.667 M376.344 29.056 C 376.266 29.134,375.628 29.145,374.927 29.079 C 373.387 28.935,373.403 28.869,375.016 28.702 C 376.209 28.579,376.692 28.708,376.344 29.056  M -25 0 L -5 0 L -5 20 L -25 20 Z M 405 0 L 425 0 L 425 20 L 405 20 Z" stroke="none" fill="#fcacac" fill-rule="evenodd" transform="translate(30,0)"></path><path id="path1" d="M349.417 8.331 C 347.968 8.454,347.144 8.747,347.277 9.092 C 347.547 9.797,353.559 9.980,353.818 9.292 C 353.917 9.029,353.891 8.877,353.731 8.784 C 353.537 8.672,350.750 8.119,350.750 8.193 C 350.750 8.207,350.150 8.269,349.417 8.331 M374.667 8.321 C 373.979 8.376,373.202 8.539,372.939 8.683 L 372.462 8.946 372.920 9.306 C 373.837 10.027,378.500 9.783,378.500 9.014 C 378.500 8.899,376.113 8.125,375.973 8.194 C 375.942 8.209,375.354 8.267,374.667 8.321 M345.834 10.417 C 345.828 10.600,345.712 10.896,345.577 11.075 C 345.332 11.398,345.359 11.677,345.718 12.532 L 345.906 12.980 346.197 12.365 C 346.581 11.554,346.574 10.958,346.172 10.477 C 345.863 10.106,345.844 10.102,345.834 10.417 M378.684 10.792 C 378.671 11.329,378.729 11.500,378.927 11.500 C 379.082 11.500,379.138 11.422,379.067 11.306 C 379.001 11.200,378.891 10.881,378.824 10.598 C 378.707 10.111,378.700 10.121,378.684 10.792 M370.798 10.932 C 370.419 11.768,370.813 13.008,371.256 12.375 C 371.677 11.775,371.728 11.112,371.387 10.691 L 371.079 10.312 370.798 10.932 M355.667 11.191 C 355.253 11.332,355.250 11.344,355.307 13.076 C 355.338 14.035,355.284 15.179,355.186 15.618 C 355.013 16.402,355.409 17.167,355.990 17.167 C 356.585 17.167,356.917 14.030,356.509 12.265 C 356.247 11.130,356.162 11.022,355.667 11.191 M380.951 13.167 C 380.329 14.631,380.521 24.000,381.173 24.000 C 382.024 24.000,382.174 15.111,381.359 12.999 L 381.198 12.583 380.951 13.167 M368.442 16.000 C 368.295 16.735,368.335 21.481,368.493 22.000 L 368.620 22.417 368.810 21.947 C 369.086 21.265,369.053 16.368,368.769 15.855 L 368.550 15.459 368.442 16.000 M352.375 18.385 C 351.179 18.996,351.134 19.078,351.875 19.311 C 353.441 19.805,354.383 19.453,354.180 18.453 C 354.035 17.738,353.669 17.724,352.375 18.385 M348.003 21.165 L 347.443 21.455 347.891 21.749 C 348.381 22.070,350.065 21.665,349.711 21.311 C 349.341 20.941,348.564 20.875,348.003 21.165 M345.722 23.474 C 345.622 23.633,345.486 24.310,345.419 24.977 C 345.334 25.827,345.221 26.220,345.043 26.288 C 344.868 26.356,344.964 26.445,345.353 26.579 C 346.211 26.872,346.333 26.675,346.333 25.000 C 346.333 23.466,346.096 22.874,345.722 23.474 M370.963 24.935 C 370.520 25.701,370.755 27.243,371.286 27.055 C 372.008 26.799,372.200 26.475,371.856 26.097 C 371.683 25.906,371.430 25.533,371.295 25.268 C 371.160 25.003,371.010 24.853,370.963 24.935 M378.349 26.155 L 377.953 26.453 378.321 26.821 C 378.614 27.114,378.737 27.149,378.928 26.991 C 379.543 26.480,378.985 25.675,378.349 26.155 M375.016 28.702 C 373.403 28.869,373.387 28.935,374.927 29.079 C 376.166 29.195,376.610 29.092,376.368 28.744 C 376.292 28.636,375.809 28.620,375.016 28.702  M -25 0 L -5 0 L -5 20 L -25 20 Z M 405 0 L 425 0 L 425 20 L 405 20 Z" stroke="none" fill="#fce1e1" fill-rule="evenodd" transform="translate(490,0)"></path><path id="path2" d="M347.289 7.244 C 345.698 7.577,345.058 8.192,343.727 10.667 C 343.505 11.079,343.104 11.792,342.836 12.250 C 341.677 14.233,342.139 15.078,344.451 15.203 C 346.751 15.327,347.055 15.107,347.842 12.750 C 348.369 11.173,348.474 11.077,349.915 10.844 C 351.306 10.620,351.788 10.814,352.395 11.842 C 352.555 12.112,352.788 12.333,352.913 12.333 C 353.504 12.333,354.206 13.367,354.122 14.113 C 354.011 15.095,351.515 17.490,350.331 17.750 C 350.010 17.821,349.654 18.126,349.272 18.658 C 348.787 19.334,348.568 19.490,347.881 19.655 C 346.405 20.009,345.447 20.699,344.398 22.164 C 343.872 22.899,343.381 23.500,343.307 23.500 C 343.233 23.500,342.994 23.856,342.776 24.292 C 341.309 27.218,342.059 29.868,344.440 30.175 C 346.447 30.434,356.197 30.363,356.561 30.087 C 357.241 29.572,357.767 26.167,357.167 26.167 C 357.075 26.167,357.000 26.063,357.000 25.936 C 357.000 25.332,356.264 25.167,353.582 25.167 C 350.759 25.167,349.081 24.883,348.570 24.319 C 348.248 23.963,348.481 23.499,348.979 23.502 C 349.834 23.507,351.456 22.711,352.297 21.873 C 352.934 21.238,353.393 20.939,353.954 20.789 C 354.735 20.582,355.049 20.327,356.524 18.700 C 357.799 17.293,358.151 15.157,357.663 11.782 C 357.399 9.958,356.087 8.222,354.413 7.481 C 353.374 7.022,349.039 6.877,347.289 7.244 M372.917 7.183 C 370.860 7.646,370.011 8.531,367.910 12.404 C 366.372 15.240,366.764 24.803,368.469 26.033 C 368.635 26.152,368.942 26.609,369.153 27.047 C 369.363 27.485,369.836 28.085,370.203 28.380 C 370.571 28.675,371.107 29.131,371.394 29.392 C 373.103 30.948,377.562 31.090,378.965 29.633 C 382.875 25.571,382.918 25.449,382.912 18.500 C 382.907 11.834,382.717 10.872,381.221 9.925 C 380.817 9.670,380.347 9.189,380.175 8.856 C 379.332 7.216,376.092 6.469,372.917 7.183 M352.483 7.738 C 354.047 7.972,354.050 7.974,354.836 8.820 C 355.269 9.286,355.702 9.667,355.799 9.667 C 357.484 9.667,357.802 16.854,356.165 17.938 C 355.805 18.176,355.468 18.505,355.416 18.670 C 355.222 19.280,353.915 20.282,353.010 20.513 C 352.367 20.678,351.990 20.901,351.607 21.341 C 351.247 21.755,350.666 22.115,349.750 22.491 C 347.392 23.458,347.170 23.712,347.733 24.800 C 348.301 25.899,348.339 25.909,352.475 26.000 C 356.926 26.098,356.667 25.998,356.667 27.622 C 356.667 29.619,357.012 29.500,351.197 29.500 C 345.126 29.500,343.443 29.275,343.181 28.426 C 342.582 26.489,342.861 25.377,344.374 23.657 C 344.974 22.976,345.834 21.766,345.835 21.601 C 345.838 21.363,346.783 20.755,347.381 20.606 C 348.487 20.331,349.667 19.674,349.981 19.157 C 350.332 18.581,350.875 18.166,351.917 17.679 C 353.601 16.891,354.870 14.887,354.599 13.442 C 354.335 12.033,352.003 10.160,350.531 10.174 C 348.333 10.194,347.776 10.584,347.080 12.583 C 346.424 14.467,346.310 14.560,344.722 14.514 C 342.824 14.458,342.582 14.108,343.555 12.819 C 343.860 12.414,344.233 11.755,344.383 11.354 C 345.305 8.894,346.614 7.865,349.083 7.662 C 349.817 7.601,350.529 7.541,350.667 7.527 C 350.804 7.513,351.621 7.608,352.483 7.738 M377.197 7.754 C 378.978 8.126,378.972 8.122,379.406 8.979 C 379.823 9.802,380.759 10.833,381.089 10.833 C 381.924 10.833,382.408 13.582,382.396 18.250 C 382.382 23.658,382.181 24.598,380.671 26.333 C 380.152 26.929,379.482 27.737,379.181 28.128 C 377.521 30.287,373.652 30.584,371.932 28.684 C 371.758 28.491,371.523 28.333,371.410 28.333 C 371.082 28.333,369.992 27.025,369.623 26.187 C 369.437 25.763,369.002 25.096,368.658 24.703 C 367.914 23.855,367.865 23.582,367.728 19.589 C 367.641 17.044,367.725 15.756,368.098 13.878 C 368.138 13.673,368.396 13.251,368.670 12.939 C 368.944 12.626,369.279 12.058,369.413 11.676 C 370.271 9.246,371.957 7.869,374.333 7.660 C 375.021 7.600,375.672 7.539,375.781 7.525 C 375.889 7.511,376.527 7.614,377.197 7.754 M373.179 10.765 C 372.897 11.002,372.667 11.269,372.667 11.359 C 372.667 11.448,372.471 11.948,372.232 12.469 C 371.993 12.990,371.650 13.791,371.469 14.248 C 371.288 14.706,371.088 15.118,371.025 15.165 C 370.422 15.610,370.244 21.087,370.800 22.102 C 370.956 22.387,371.401 23.227,371.790 23.969 C 372.752 25.807,373.367 26.394,374.589 26.639 C 375.914 26.905,376.094 26.889,376.543 26.458 C 376.758 26.252,377.430 25.615,378.035 25.042 C 379.927 23.254,380.066 22.701,379.857 17.833 C 379.692 14.011,379.545 13.416,378.572 12.613 C 378.252 12.350,377.842 11.843,377.660 11.487 C 377.026 10.245,374.316 9.808,373.179 10.765 M377.083 12.083 C 377.267 12.449,377.734 13.060,378.123 13.441 C 379.120 14.418,379.203 14.737,379.294 17.946 C 379.415 22.230,379.334 22.628,378.141 23.599 C 378.018 23.700,377.520 24.205,377.035 24.721 L 376.153 25.661 374.921 25.557 C 373.459 25.434,373.053 25.021,372.235 22.829 C 371.581 21.078,371.536 16.740,372.154 15.000 C 373.628 10.849,373.420 11.137,375.037 11.011 C 376.403 10.905,376.526 10.969,377.083 12.083 M360.458 25.914 C 359.471 26.783,359.998 30.000,361.128 30.000 C 362.263 30.000,362.864 29.101,362.800 27.501 L 362.750 26.259 362.083 25.882 C 361.245 25.409,361.028 25.413,360.458 25.914 M361.122 28.375 C 361.087 28.765,361.058 28.446,361.058 27.667 C 361.058 26.887,361.087 26.569,361.122 26.958 C 361.157 27.348,361.157 27.985,361.122 28.375  M -25 0 L -5 0 L -5 20 L -25 20 Z M 405 0 L 425 0 L 425 20 L 405 20 Z" stroke="none" fill="#f47474" fill-rule="evenodd" transform="translate(950,0)"></path><path id="path3" d="M36.667 10.750 L 36.667 21.500 18.333 21.500 L 0.000 21.500 0.000 30.250 L 0.000 39.000 17.083 39.000 C 28.361 39.000,34.167 39.057,34.167 39.167 C 34.167 39.258,33.939 39.333,33.661 39.333 C 32.140 39.333,31.903 39.713,31.728 42.437 L 31.619 44.125 30.637 44.214 C 29.168 44.347,29.167 44.350,29.167 46.937 L 29.167 49.167 28.095 49.167 C 26.628 49.167,26.500 49.320,26.500 51.079 L 26.500 52.467 25.936 52.800 C 25.626 52.983,25.235 53.365,25.067 53.650 C 24.899 53.934,24.636 54.167,24.482 54.167 C 24.103 54.167,24.000 54.505,24.000 55.742 L 24.000 56.790 23.231 56.877 C 21.913 57.025,21.513 57.926,21.503 60.769 L 21.500 61.787 20.481 61.879 C 19.091 62.005,19.092 62.004,19.029 64.591 L 18.974 66.833 17.999 66.833 C 16.665 66.833,16.500 67.028,16.500 68.597 L 16.500 69.836 15.841 70.100 C 15.343 70.299,15.096 70.540,14.833 71.084 C 14.642 71.480,14.379 71.844,14.250 71.894 C 14.084 71.957,14.000 72.343,13.966 73.200 L 13.917 74.417 13.333 74.463 C 11.947 74.575,11.677 75.040,11.545 77.538 L 11.450 79.333 10.660 79.333 C 9.239 79.333,9.093 79.586,9.028 82.152 L 8.974 84.333 7.999 84.333 C 6.668 84.333,6.500 84.529,6.500 86.080 L 6.500 87.304 5.760 87.662 C 5.204 87.931,4.931 88.204,4.662 88.760 C 4.465 89.167,4.235 89.500,4.152 89.500 C 4.068 89.500,4.000 90.059,4.000 90.742 L 4.000 91.985 3.375 92.087 C 1.469 92.398,1.498 92.355,1.376 95.020 L 1.284 97.000 0.642 97.000 L 0.000 97.000 -0.000 100.668 L -0.000 104.336 11.875 104.293 L 23.750 104.250 23.799 103.042 L 23.848 101.833 24.663 101.833 C 25.111 101.833,25.671 101.760,25.906 101.671 L 26.333 101.508 26.333 99.171 L 26.333 96.833 27.405 96.833 C 28.835 96.833,28.998 96.658,29.006 95.113 L 29.012 93.917 29.714 93.583 C 30.204 93.351,30.517 93.049,30.750 92.586 C 30.933 92.220,31.175 91.845,31.286 91.752 C 31.400 91.657,31.510 91.073,31.536 90.417 C 31.583 89.254,31.585 89.250,32.083 89.202 C 33.568 89.058,33.811 88.652,33.948 86.080 L 34.049 84.209 35.059 84.103 C 36.415 83.962,36.408 83.974,36.475 81.409 L 36.533 79.167 37.401 79.167 C 38.836 79.167,38.903 79.053,39.000 76.472 L 39.083 74.250 40.111 74.201 C 41.372 74.140,41.471 74.029,41.533 72.581 L 41.583 71.426 42.250 71.290 C 43.351 71.065,43.818 70.133,43.953 67.885 L 44.026 66.687 44.939 66.573 C 46.225 66.413,46.361 66.153,46.464 63.659 L 46.546 61.667 47.856 61.667 L 49.167 61.667 49.174 63.042 C 49.187 65.596,49.579 66.500,50.671 66.500 C 51.560 66.500,51.667 66.625,51.667 67.671 C 51.667 68.841,51.775 69.167,52.164 69.167 C 52.336 69.167,52.547 69.379,52.670 69.675 C 52.798 69.983,53.135 70.314,53.524 70.512 L 54.167 70.840 54.167 72.170 C 54.167 73.892,54.393 74.167,55.814 74.167 L 56.794 74.167 56.861 76.314 C 56.940 78.851,56.990 78.945,58.348 79.098 L 59.333 79.210 59.333 80.345 C 59.333 80.969,59.408 81.527,59.500 81.583 C 59.592 81.640,59.667 81.950,59.667 82.273 C 59.667 83.017,60.371 83.763,61.225 83.923 L 61.833 84.037 61.833 85.173 C 61.833 86.628,62.019 86.833,63.332 86.833 L 64.307 86.833 64.362 88.995 C 64.426 91.541,64.503 91.681,65.885 91.796 L 66.787 91.871 66.881 93.477 C 67.027 95.958,67.459 96.667,68.825 96.667 L 69.333 96.667 69.333 97.813 C 69.333 99.189,69.433 99.298,70.756 99.366 L 71.750 99.417 71.833 101.639 C 71.907 103.590,71.956 103.890,72.240 104.097 C 72.809 104.513,285.262 104.446,285.484 104.030 C 285.573 103.863,285.940 103.630,286.298 103.512 C 286.936 103.301,287.500 102.648,287.500 102.119 C 287.500 101.942,287.830 101.825,288.677 101.699 C 290.117 101.485,290.333 101.321,290.336 100.438 C 290.339 99.491,290.447 99.389,291.532 99.301 C 292.817 99.197,293.000 99.011,293.000 97.813 L 293.000 96.833 294.071 96.833 C 294.823 96.833,295.221 96.755,295.405 96.571 C 295.642 96.335,295.667 91.710,295.667 48.155 L 295.667 0.000 288.167 0.000 L 280.667 0.000 280.667 44.750 L 280.667 89.500 186.273 89.500 L 91.880 89.500 91.787 88.478 C 91.673 87.219,91.472 87.007,90.276 86.884 L 89.333 86.787 89.333 85.800 C 89.333 83.859,88.636 82.477,87.524 82.215 L 86.917 82.072 86.833 80.863 C 86.735 79.443,86.632 79.339,85.305 79.336 L 84.360 79.333 84.305 77.172 C 84.240 74.626,84.164 74.485,82.783 74.371 L 81.881 74.296 81.784 72.576 C 81.646 70.145,81.198 69.500,79.649 69.500 L 79.181 69.500 79.132 68.208 L 79.083 66.917 77.917 66.833 L 76.750 66.750 76.667 64.452 C 76.571 61.819,76.583 61.840,75.148 61.836 L 74.212 61.833 74.127 59.875 C 74.080 58.798,73.946 57.712,73.829 57.462 C 73.603 56.977,73.486 56.920,72.375 56.748 L 71.667 56.637 71.667 55.491 C 71.667 54.532,71.615 54.317,71.347 54.174 C 71.171 54.080,70.941 53.744,70.837 53.428 C 70.694 52.995,70.466 52.766,69.907 52.495 L 69.167 52.137 69.167 50.914 C 69.167 49.359,69.000 49.167,67.655 49.167 L 66.667 49.167 66.666 47.458 C 66.664 44.667,66.359 44.171,64.638 44.168 C 64.204 44.167,64.191 44.138,64.119 42.958 C 63.970 40.537,63.625 39.881,62.325 39.544 C 60.406 39.047,61.613 39.000,76.278 38.998 C 92.166 38.995,91.638 39.019,91.782 38.298 C 91.844 37.990,92.087 37.670,92.432 37.444 C 92.735 37.246,93.017 36.952,93.059 36.792 C 93.105 36.616,93.295 36.500,93.534 36.500 C 94.190 36.500,94.333 36.197,94.333 34.815 L 94.333 33.530 95.067 33.175 C 95.562 32.935,95.835 32.682,95.907 32.395 C 95.966 32.162,96.194 31.804,96.416 31.599 C 96.759 31.281,96.825 31.047,96.867 29.993 L 96.917 28.760 97.628 28.619 C 98.815 28.385,99.187 27.401,99.288 24.218 C 99.386 21.122,102.394 21.500,77.667 21.500 L 56.667 21.500 56.667 10.750 L 56.667 0.000 46.667 0.000 L 36.667 0.000 36.667 10.750 M142.167 0.667 L 142.167 1.333 141.078 1.333 C 140.280 1.333,139.965 1.398,139.897 1.576 C 139.845 1.709,139.477 1.976,139.078 2.169 C 138.538 2.431,138.262 2.709,137.995 3.260 L 137.637 4.000 120.141 4.000 C 108.399 4.000,102.539 4.057,102.322 4.173 C 101.812 4.446,101.822 15.489,102.333 16.000 C 102.654 16.321,102.889 16.333,108.643 16.333 L 114.620 16.333 114.723 17.200 C 114.854 18.303,115.197 18.646,116.300 18.777 L 117.167 18.880 117.167 20.190 L 117.167 21.500 111.167 21.500 C 105.389 21.500,105.154 21.512,104.833 21.833 C 104.368 22.299,104.299 88.608,104.763 89.073 C 104.998 89.308,106.072 89.331,114.722 89.293 L 124.417 89.250 124.459 70.379 L 124.501 51.509 133.076 51.463 C 139.826 51.426,141.696 51.371,141.867 51.201 C 142.013 51.055,142.110 50.270,142.167 48.784 L 142.250 46.583 143.278 46.534 C 144.539 46.474,144.637 46.362,144.700 44.916 L 144.750 43.763 145.313 43.648 C 146.496 43.407,146.992 42.440,147.120 40.125 L 147.192 38.833 147.688 38.833 C 148.761 38.833,149.500 38.042,149.500 36.892 C 149.500 36.102,149.794 36.528,149.869 37.425 C 149.966 38.595,150.235 38.867,151.392 38.963 L 152.300 39.039 152.358 41.085 C 152.428 43.538,152.548 43.753,153.934 43.926 L 154.833 44.038 154.835 45.144 C 154.839 47.420,155.302 48.336,156.625 48.686 L 157.333 48.873 157.333 49.925 C 157.333 51.630,156.580 51.500,166.429 51.500 L 175.000 51.500 175.000 61.649 C 175.000 72.729,175.065 72.000,174.078 72.000 C 173.120 72.000,172.604 72.554,172.448 73.750 C 172.413 74.025,172.372 69.287,172.358 63.220 C 172.336 53.437,172.304 52.161,172.071 51.929 C 171.702 51.559,125.159 51.524,124.853 51.893 C 124.716 52.058,124.677 56.778,124.708 69.435 L 124.750 86.750 143.279 86.792 C 164.417 86.841,162.333 87.011,162.333 85.238 L 162.333 84.167 163.320 84.167 C 164.807 84.167,164.833 84.144,164.833 82.823 L 164.833 81.681 166.042 81.632 L 167.250 81.583 167.333 80.417 L 167.417 79.250 168.723 79.167 C 170.340 79.063,170.167 78.664,170.167 82.491 L 170.167 85.760 170.708 86.838 C 171.116 87.650,171.405 87.999,171.875 88.250 C 172.218 88.433,172.499 88.679,172.500 88.796 C 172.500 89.229,173.453 89.333,177.419 89.333 C 183.381 89.333,184.667 88.967,184.667 87.270 C 184.667 86.782,185.065 86.333,185.499 86.333 C 186.010 86.333,186.814 85.526,187.003 84.821 C 187.100 84.461,187.252 84.167,187.340 84.167 C 187.428 84.167,187.500 84.024,187.500 83.850 C 187.500 83.664,187.742 83.390,188.083 83.189 C 188.404 82.999,188.791 82.583,188.944 82.264 C 189.108 81.919,189.362 81.663,189.569 81.633 C 189.880 81.589,189.922 81.455,189.966 80.375 L 190.015 79.167 191.057 79.167 C 192.362 79.167,192.500 79.028,192.500 77.717 L 192.500 76.667 193.488 76.667 C 194.164 76.667,194.559 76.584,194.738 76.405 C 195.139 76.004,195.139 22.163,194.738 21.762 C 194.511 21.535,193.670 21.496,188.363 21.468 C 185.001 21.450,182.737 21.410,183.333 21.379 C 184.807 21.301,184.833 21.252,184.833 18.551 L 184.833 16.333 189.655 16.333 C 195.529 16.333,195.000 16.607,195.000 13.571 L 195.000 11.333 195.917 11.333 C 197.493 11.333,197.515 11.275,197.462 7.371 L 197.417 4.083 178.549 4.041 L 159.681 3.999 159.632 2.708 L 159.583 1.417 158.375 1.368 L 157.167 1.319 157.167 0.659 L 157.167 0.000 149.667 0.000 L 142.167 0.000 142.167 0.667 M215.333 0.896 C 215.333 1.762,215.316 1.795,214.823 1.894 C 214.191 2.020,213.390 2.796,213.231 3.437 C 213.165 3.701,213.014 3.992,212.894 4.083 C 212.759 4.187,212.660 4.719,212.630 5.500 L 212.583 6.750 212.000 6.804 C 210.839 6.912,210.357 7.874,210.215 10.362 L 210.142 11.642 209.493 11.751 C 208.138 11.980,207.667 12.949,207.667 15.506 L 207.667 16.623 206.898 16.710 C 205.594 16.857,205.170 17.772,205.168 20.448 L 205.167 21.480 204.411 21.593 C 202.985 21.807,202.688 22.426,202.674 25.208 L 202.667 26.667 202.009 26.667 C 200.772 26.667,200.417 27.187,200.417 29.000 C 200.417 31.652,199.837 31.541,213.333 31.467 L 222.583 31.417 222.634 31.058 C 222.664 30.851,222.882 30.618,223.151 30.507 C 223.407 30.401,223.780 30.023,223.979 29.668 C 224.201 29.273,224.487 29.002,224.713 28.969 C 225.054 28.921,225.087 28.816,225.132 27.625 L 225.181 26.333 226.101 26.333 C 227.509 26.333,227.667 26.190,227.667 24.911 L 227.667 23.833 228.308 23.833 C 229.813 23.833,230.046 23.589,230.222 21.833 C 230.254 21.512,230.292 21.754,230.307 22.369 C 230.338 23.690,230.492 23.833,231.881 23.833 L 232.785 23.833 232.875 25.463 C 233.010 27.919,233.585 28.833,234.995 28.833 C 235.297 28.833,235.333 28.939,235.333 29.833 C 235.333 31.648,234.320 31.500,246.717 31.500 C 254.830 31.500,257.482 31.451,257.633 31.300 C 257.876 31.057,257.907 26.268,257.672 25.254 C 257.484 24.445,257.174 24.201,256.157 24.066 L 255.372 23.962 255.303 21.895 C 255.222 19.453,255.092 19.221,253.716 19.058 L 252.866 18.957 252.808 16.818 C 252.740 14.312,252.676 14.195,251.289 14.052 L 250.359 13.956 250.304 11.817 C 250.241 9.311,250.177 9.195,248.789 9.052 L 247.858 8.956 247.804 6.736 C 247.742 4.173,247.741 4.172,246.353 4.046 L 245.333 3.954 245.333 1.977 L 245.333 0.000 230.333 0.000 L 215.333 0.000 215.333 0.896 M255.668 5.708 C 255.669 12.737,255.740 13.071,257.324 13.497 L 257.999 13.679 258.041 38.881 L 258.083 64.083 261.358 64.083 C 265.250 64.083,265.333 64.051,265.333 62.558 L 265.333 61.667 266.467 61.667 C 267.867 61.667,268.000 61.543,268.000 60.237 L 268.000 59.207 270.074 59.138 C 272.584 59.054,272.766 58.949,272.931 57.486 L 273.041 56.514 274.229 56.465 L 275.417 56.417 275.459 28.208 L 275.501 0.000 265.584 0.000 L 255.667 0.000 255.668 5.708 M333.500 0.667 L 333.500 1.333 331.365 1.333 C 328.711 1.333,328.628 1.379,328.531 2.897 L 328.461 4.000 327.494 4.000 C 326.028 4.000,326.000 4.025,326.000 5.344 L 326.000 6.485 324.792 6.534 L 323.583 6.583 323.534 7.792 L 323.485 9.000 322.359 9.000 C 320.963 9.000,320.833 9.123,320.833 10.450 L 320.833 11.500 319.917 11.500 C 318.245 11.500,318.333 11.083,318.336 18.958 C 318.339 26.644,318.255 26.208,319.739 26.302 L 320.833 26.372 320.833 27.486 C 320.833 28.885,320.950 29.000,322.367 29.000 L 323.500 29.000 323.500 29.986 C 323.500 31.475,323.522 31.500,324.851 31.500 L 326.000 31.500 326.000 32.550 C 326.000 33.859,326.139 34.000,327.430 34.000 L 328.460 34.000 328.534 35.022 C 328.637 36.445,328.743 36.500,331.365 36.500 L 333.500 36.500 333.500 37.417 C 333.500 39.188,330.060 39.000,362.467 39.000 C 392.462 39.000,391.167 39.035,391.167 38.228 C 391.167 37.997,391.372 37.712,391.708 37.477 C 392.006 37.268,392.348 36.963,392.468 36.798 C 392.637 36.566,392.919 36.500,393.739 36.500 C 395.810 36.500,396.163 36.219,396.166 34.565 C 396.167 34.052,396.178 34.045,397.173 33.955 C 398.607 33.825,398.667 33.743,398.667 31.896 L 398.667 30.333 399.333 30.333 L 400.000 30.333 400.000 18.917 L 400.000 7.500 399.333 7.500 L 398.667 7.500 398.667 5.927 C 398.667 4.132,398.710 4.189,397.257 4.054 L 396.167 3.952 396.166 3.351 C 396.163 1.605,395.835 1.333,393.729 1.333 L 392.667 1.333 392.667 0.667 L 392.667 0.000 363.083 0.000 L 333.500 0.000 333.500 0.667 M356.089 7.260 C 357.836 8.115,358.482 10.566,358.277 15.565 C 358.130 19.158,357.207 20.491,354.343 21.252 C 353.728 21.415,353.571 21.541,353.418 21.996 C 353.175 22.717,352.480 23.295,351.708 23.418 C 348.734 23.891,349.341 24.197,353.500 24.323 C 356.355 24.410,356.623 24.445,357.112 24.794 C 358.581 25.842,358.541 29.757,357.050 30.767 C 356.310 31.268,343.706 31.253,342.851 30.750 C 340.686 29.476,340.796 23.895,343.015 22.427 C 343.443 22.143,343.811 21.715,344.006 21.275 C 344.549 20.047,345.360 19.544,347.503 19.108 C 348.542 18.897,348.587 18.867,348.667 18.336 C 348.769 17.656,349.323 17.218,350.427 16.943 C 351.170 16.758,351.286 16.662,351.624 15.961 C 351.928 15.329,352.155 15.112,352.834 14.800 C 354.064 14.236,354.135 13.502,352.981 13.271 C 352.339 13.143,351.577 12.343,351.439 11.654 C 351.141 10.164,348.751 11.766,348.176 13.841 C 347.691 15.590,347.022 16.001,344.667 15.995 C 341.814 15.989,340.897 14.691,341.777 11.901 C 342.068 10.979,342.915 9.833,343.306 9.833 C 343.416 9.833,343.617 9.571,343.753 9.250 C 343.889 8.929,344.110 8.408,344.243 8.091 C 344.776 6.834,345.788 6.653,351.655 6.768 C 355.065 6.835,355.266 6.858,356.089 7.260 M380.000 7.144 C 380.229 7.310,380.529 7.793,380.667 8.216 C 380.971 9.153,381.171 9.364,381.958 9.585 C 383.313 9.965,383.604 12.055,383.442 20.250 C 383.326 26.086,382.963 27.642,381.594 28.163 C 381.161 28.327,380.333 29.257,380.333 29.579 C 380.333 31.677,371.469 31.729,369.981 29.641 C 369.783 29.363,369.444 28.944,369.227 28.710 C 369.011 28.476,368.833 28.221,368.833 28.142 C 368.833 28.064,368.665 27.832,368.458 27.626 C 366.568 25.743,366.449 25.144,366.540 18.047 C 366.619 11.855,366.951 10.377,368.383 9.848 C 368.585 9.773,368.944 9.277,369.240 8.662 C 370.144 6.788,370.723 6.637,376.500 6.770 C 379.143 6.831,379.643 6.884,380.000 7.144 M375.675 11.899 C 375.358 12.085,374.799 12.277,374.431 12.327 C 373.784 12.414,373.753 12.447,373.432 13.417 C 372.993 14.741,372.921 22.624,373.337 23.750 L 373.584 24.417 374.915 24.511 C 376.282 24.608,376.809 24.388,376.828 23.714 C 376.838 23.355,377.823 22.372,378.292 22.254 C 378.970 22.084,378.995 21.973,378.997 19.063 C 379.001 15.700,378.944 15.384,378.317 15.246 C 377.905 15.156,377.167 14.415,377.167 14.093 C 377.167 14.034,377.012 13.778,376.824 13.523 C 376.635 13.268,376.429 12.722,376.365 12.310 L 376.250 11.562 375.675 11.899 M164.027 16.513 C 162.482 16.713,162.500 16.681,162.500 19.271 L 162.500 21.502 149.875 21.459 L 137.250 21.417 137.203 19.095 C 137.176 17.730,137.082 16.682,136.975 16.553 C 136.824 16.372,139.255 16.337,150.938 16.354 C 159.176 16.367,164.642 16.433,164.027 16.513 M362.918 24.983 C 365.412 26.087,365.694 28.924,363.441 30.245 C 360.802 31.791,359.179 30.825,359.170 27.702 C 359.163 24.869,360.487 23.908,362.918 24.983 M203.731 31.906 C 202.693 32.357,202.754 30.625,202.705 60.955 C 202.660 88.559,202.661 88.661,202.997 88.997 C 203.461 89.461,221.944 89.533,222.405 89.071 C 222.640 88.836,222.667 86.778,222.667 68.905 L 222.667 49.000 229.000 49.000 L 235.333 49.000 235.333 63.750 L 235.333 78.500 235.686 78.853 C 236.022 79.189,236.162 79.202,238.561 79.131 C 242.006 79.029,242.667 78.711,242.667 77.156 C 242.667 76.669,242.672 76.667,243.667 76.667 C 245.004 76.667,245.333 76.354,245.333 75.083 L 245.333 74.167 246.505 74.167 C 247.393 74.167,247.700 74.106,247.773 73.917 C 247.826 73.779,247.975 73.667,248.104 73.667 C 248.758 73.667,249.833 72.585,249.833 71.928 C 249.833 71.769,250.169 71.685,250.999 71.638 C 252.445 71.557,252.694 71.343,252.798 70.092 L 252.875 69.167 253.904 69.167 C 254.482 69.167,255.021 69.079,255.133 68.967 C 255.381 68.719,255.418 33.815,255.172 32.754 C 255.087 32.390,254.887 31.997,254.727 31.879 C 254.284 31.555,204.478 31.581,203.731 31.906 M127.167 37.813 L 127.167 39.127 126.164 39.199 C 124.778 39.299,124.765 39.323,124.656 41.966 C 124.571 44.012,124.558 43.846,124.531 40.375 L 124.500 36.500 125.833 36.500 L 127.167 36.500 127.167 37.813 M174.976 40.375 C 174.952 44.053,174.944 44.144,174.819 42.167 C 174.676 39.914,174.397 39.337,173.449 39.331 C 172.450 39.325,172.334 39.197,172.331 38.106 C 172.328 36.972,172.239 36.744,171.750 36.622 C 171.567 36.576,172.223 36.530,173.208 36.519 L 175.000 36.500 174.976 40.375 M154.833 70.500 L 154.833 74.333 149.750 74.333 L 144.667 74.333 144.667 70.500 L 144.667 66.667 149.750 66.667 L 154.833 66.667 154.833 70.500 M112.367 109.700 C 112.223 109.843,112.167 110.929,112.167 113.531 L 112.167 117.162 107.125 117.206 L 102.083 117.250 102.034 118.458 L 101.985 119.667 100.951 119.669 C 99.581 119.673,99.526 119.725,99.467 121.088 C 99.417 122.244,99.414 122.250,98.917 122.298 C 97.055 122.479,97.093 122.327,97.028 129.933 C 96.965 137.459,96.869 137.000,98.512 137.000 L 99.500 137.000 99.500 139.072 C 99.500 140.212,99.573 141.337,99.663 141.572 L 99.825 142.000 102.163 142.000 L 104.500 142.000 104.500 142.667 L 104.500 143.333 108.250 143.333 L 112.000 143.333 112.000 142.667 L 112.000 142.000 115.750 142.000 L 119.500 142.000 119.500 125.950 C 119.500 113.689,119.453 109.853,119.300 109.700 C 119.158 109.558,118.152 109.500,115.833 109.500 C 113.515 109.500,112.509 109.558,112.367 109.700 M217.934 109.764 C 217.879 109.909,217.833 117.223,217.833 126.017 L 217.833 142.007 221.458 141.962 L 225.083 141.917 225.126 125.971 C 225.164 111.639,225.142 109.999,224.906 109.763 C 224.511 109.368,218.086 109.369,217.934 109.764 M225.594 109.763 C 225.358 109.999,225.336 111.639,225.374 125.971 L 225.417 141.917 229.042 141.962 L 232.667 142.007 232.667 125.953 C 232.667 113.690,232.619 109.853,232.467 109.700 C 232.133 109.366,225.934 109.423,225.594 109.763 M0.000 122.080 L 0.000 127.000 0.657 127.000 L 1.314 127.000 1.365 130.411 C 1.425 134.383,1.396 134.310,2.978 134.454 L 4.000 134.546 4.003 138.065 C 4.004 140.000,4.065 141.678,4.139 141.794 C 4.243 141.958,5.332 141.995,9.011 141.961 L 13.750 141.917 13.838 138.167 C 13.887 136.104,13.943 134.834,13.963 135.343 C 14.015 136.640,14.235 136.876,15.478 136.966 L 16.500 137.040 16.500 139.520 L 16.500 142.000 20.167 142.000 L 23.833 142.000 23.833 140.750 L 23.833 139.500 24.820 139.500 C 26.449 139.500,26.333 139.792,26.333 135.668 L 26.333 132.039 27.416 131.970 C 28.958 131.872,28.903 132.009,29.008 127.950 C 29.093 124.638,29.101 124.569,29.133 126.857 C 29.171 129.636,29.092 129.500,30.680 129.500 L 31.667 129.500 31.670 133.125 C 31.673 136.188,31.851 138.906,32.062 139.118 C 32.092 139.148,32.559 139.227,33.100 139.295 L 34.083 139.417 34.132 140.709 L 34.181 142.000 37.840 142.000 L 41.500 142.000 41.500 140.770 L 41.500 139.540 42.502 139.468 C 43.949 139.363,43.904 139.482,44.007 135.450 L 44.096 131.917 44.132 136.531 C 44.151 139.069,44.240 141.339,44.330 141.575 L 44.494 142.005 49.289 141.961 L 54.083 141.917 54.129 139.375 L 54.175 136.833 54.763 136.833 C 56.468 136.833,56.541 136.621,56.629 131.375 L 56.703 127.000 58.018 127.000 L 59.333 127.000 59.333 130.142 C 59.333 134.341,59.404 134.500,61.271 134.500 L 61.833 134.500 61.836 138.042 C 61.837 139.990,61.899 141.678,61.972 141.794 C 62.076 141.958,63.165 141.995,66.845 141.961 L 71.583 141.917 71.671 138.167 C 71.720 136.104,71.776 134.834,71.796 135.343 C 71.848 136.640,72.068 136.876,73.311 136.966 L 74.333 137.040 74.333 139.520 L 74.333 142.000 78.083 142.000 L 81.833 142.000 81.833 140.750 L 81.833 139.500 82.761 139.500 C 84.406 139.500,84.333 139.680,84.333 135.598 L 84.333 132.040 85.336 131.968 C 86.783 131.863,86.738 131.983,86.833 127.950 L 86.917 124.417 87.417 124.368 C 89.046 124.211,89.250 123.759,89.250 120.318 C 89.250 116.850,89.703 117.167,84.737 117.167 C 79.035 117.167,79.484 116.697,79.334 122.833 C 79.275 125.263,79.213 126.331,79.197 125.208 C 79.159 122.672,79.016 122.457,77.250 122.296 L 76.750 122.250 76.667 119.750 L 76.583 117.250 73.000 117.250 L 69.417 117.250 69.333 118.500 L 69.250 119.750 68.667 119.795 C 66.949 119.927,66.962 119.891,66.845 125.333 L 66.750 129.750 66.667 124.889 C 66.572 119.377,66.693 119.824,65.266 119.709 L 64.180 119.622 64.132 118.436 L 64.083 117.250 57.962 117.206 L 51.841 117.163 51.753 117.540 C 51.704 117.747,51.646 118.892,51.624 120.083 L 51.583 122.250 51.083 122.298 C 49.418 122.460,49.302 122.719,49.166 126.583 C 49.063 129.518,49.053 129.334,49.026 124.083 C 49.010 120.761,48.926 118.158,48.825 117.792 L 48.651 117.167 44.071 117.167 L 39.492 117.167 39.329 117.594 C 39.240 117.829,39.155 120.098,39.141 122.636 C 39.127 125.174,39.071 126.785,39.016 126.217 C 38.892 124.932,38.750 124.789,37.502 124.699 L 36.500 124.627 36.500 121.160 C 36.500 119.254,36.454 117.575,36.399 117.430 C 36.272 117.099,23.160 117.025,22.443 117.352 C 21.692 117.694,21.615 118.139,21.501 122.833 C 21.442 125.263,21.375 126.688,21.351 126.000 C 21.250 123.011,21.017 122.491,19.710 122.341 L 18.917 122.250 18.833 119.750 L 18.750 117.250 15.167 117.250 L 11.583 117.250 11.500 118.500 L 11.417 119.750 10.541 119.800 C 9.150 119.881,9.115 120.006,9.007 125.333 L 8.917 129.750 8.833 124.889 C 8.739 119.377,8.860 119.824,7.433 119.709 L 6.347 119.622 6.299 118.436 L 6.250 117.250 3.125 117.205 L 0.000 117.159 0.000 122.080 M123.061 117.362 C 122.502 117.632,122.326 118.239,122.217 120.274 L 122.116 122.167 121.153 122.167 C 119.631 122.167,119.638 122.149,119.698 125.847 C 119.758 129.443,119.725 129.363,121.164 129.468 L 122.167 129.540 122.167 130.570 C 122.167 131.994,122.179 132.000,124.847 132.000 L 127.127 132.000 127.199 133.002 C 127.300 134.396,127.322 134.408,129.925 134.471 L 132.167 134.526 132.140 135.888 C 132.125 136.637,132.085 136.987,132.051 136.667 C 131.880 135.082,131.519 134.858,128.899 134.717 L 127.014 134.616 126.965 133.433 L 126.917 132.250 123.521 132.205 C 119.268 132.148,119.667 131.792,119.667 135.655 C 119.667 139.366,119.664 139.359,121.137 139.466 L 122.153 139.539 122.201 140.728 L 122.250 141.917 123.458 141.966 L 124.667 142.015 124.667 142.674 L 124.667 143.333 130.917 143.333 L 137.167 143.333 137.167 142.667 L 137.167 142.000 138.417 142.000 L 139.667 142.000 139.667 140.750 L 139.667 139.500 140.993 139.500 L 142.319 139.500 142.368 140.708 L 142.417 141.917 144.875 141.963 L 147.333 142.009 147.333 142.671 L 147.333 143.333 151.000 143.333 L 154.667 143.333 154.667 142.667 L 154.667 142.000 157.167 142.000 L 159.667 142.000 159.697 140.708 C 159.723 139.659,159.738 139.589,159.782 140.333 C 159.812 140.837,159.875 141.419,159.921 141.625 L 160.006 142.000 164.819 142.000 C 169.053 142.000,169.643 141.968,169.732 141.736 C 169.788 141.591,169.833 137.654,169.833 132.986 L 169.833 124.500 171.167 124.500 L 172.500 124.500 172.500 132.986 C 172.500 137.654,172.546 141.591,172.601 141.736 C 172.755 142.136,182.079 142.136,182.232 141.736 C 182.288 141.591,182.333 137.654,182.333 132.986 L 182.333 124.500 183.667 124.500 L 185.000 124.500 185.000 132.986 C 185.000 137.654,185.046 141.591,185.101 141.736 C 185.255 142.136,194.745 142.136,194.899 141.736 C 194.954 141.591,195.000 137.247,195.000 132.082 C 195.000 121.342,195.126 122.167,193.488 122.167 L 192.500 122.167 192.500 120.094 C 192.500 118.954,192.427 117.829,192.337 117.594 L 192.175 117.167 176.275 117.167 C 162.773 117.167,160.345 117.202,160.179 117.402 C 160.071 117.532,159.921 118.113,159.846 118.694 C 159.729 119.593,159.706 119.646,159.688 119.050 C 159.630 117.128,159.741 117.153,151.667 117.206 L 144.917 117.250 144.868 118.451 L 144.819 119.652 143.618 119.701 L 142.417 119.750 142.368 120.958 L 142.319 122.167 141.018 122.167 L 139.718 122.167 139.616 120.274 C 139.505 118.192,139.333 117.629,138.724 117.352 C 138.182 117.105,123.572 117.114,123.061 117.362 M198.005 117.410 C 197.894 117.545,197.763 118.097,197.714 118.639 L 197.624 119.624 196.626 119.715 C 195.217 119.842,195.257 119.740,195.196 123.394 C 195.128 127.437,194.580 127.028,199.979 126.966 C 204.959 126.909,204.793 126.960,204.949 125.443 L 205.047 124.500 206.398 124.526 L 207.750 124.552 206.619 124.651 C 205.287 124.768,205.173 124.889,205.169 126.190 L 205.167 127.131 200.792 127.204 C 194.636 127.308,195.267 126.451,195.195 134.809 C 195.127 142.595,195.019 142.000,196.503 142.000 L 197.667 142.000 197.667 142.667 L 197.667 143.333 202.583 143.333 L 207.500 143.333 207.500 142.667 L 207.500 142.000 208.833 142.000 L 210.167 142.000 210.167 142.667 L 210.167 143.333 213.920 143.333 L 217.674 143.333 217.629 140.292 L 217.583 137.250 216.385 137.201 L 215.187 137.152 215.134 127.785 C 215.078 117.729,215.079 117.741,214.224 117.352 C 213.543 117.041,198.266 117.097,198.005 117.410 M248.339 117.410 C 248.227 117.545,248.096 118.099,248.047 118.642 L 247.957 119.631 246.902 119.698 C 245.530 119.785,245.592 119.667,245.529 122.325 L 245.476 124.623 244.482 124.713 C 242.901 124.856,243.000 124.461,243.000 130.604 C 243.000 136.955,242.918 136.688,244.917 136.871 L 245.417 136.917 245.519 138.583 C 245.732 142.046,245.691 142.000,248.591 142.000 L 250.500 142.000 250.500 142.667 L 250.500 143.333 255.417 143.333 L 260.333 143.333 260.333 142.667 L 260.333 142.000 262.242 142.000 C 265.439 142.000,265.333 142.188,265.333 136.489 L 265.333 132.160 261.708 132.205 L 258.083 132.250 258.034 133.458 L 257.985 134.667 257.005 134.667 C 255.720 134.667,255.508 134.882,255.474 136.220 L 255.448 137.250 255.349 136.119 C 255.232 134.784,255.113 134.673,253.792 134.669 L 252.833 134.667 252.833 129.583 L 252.833 124.500 255.400 124.500 L 257.967 124.500 258.025 126.661 C 258.104 129.570,257.889 129.402,261.605 129.472 C 263.215 129.503,264.714 129.483,264.935 129.427 L 265.338 129.326 265.294 124.538 L 265.250 119.750 264.042 119.701 L 262.833 119.652 262.833 118.673 C 262.833 117.015,263.564 117.167,255.586 117.167 C 249.607 117.167,248.510 117.204,248.339 117.410 M265.582 117.542 C 265.532 117.748,265.512 123.317,265.537 129.917 L 265.583 141.917 269.292 141.962 L 273.000 142.006 273.000 134.503 L 273.000 127.000 274.050 127.000 C 275.363 127.000,275.500 126.863,275.500 125.550 L 275.500 124.500 276.833 124.500 L 278.167 124.500 278.167 132.986 C 278.167 137.654,278.212 141.591,278.268 141.736 C 278.421 142.136,287.745 142.136,287.899 141.736 C 287.954 141.591,288.000 137.279,288.000 132.153 C 288.000 121.400,288.122 122.167,286.417 122.167 L 285.500 122.167 285.500 120.094 C 285.500 118.954,285.427 117.829,285.337 117.594 L 285.175 117.167 275.424 117.167 L 265.673 117.167 265.582 117.542 M109.667 125.649 C 109.667 126.978,109.691 127.000,111.185 127.000 L 112.175 127.000 112.129 129.625 L 112.083 132.250 111.500 132.298 C 110.187 132.405,109.667 132.914,109.667 134.091 L 109.667 134.667 108.333 134.667 L 107.000 134.667 107.000 133.679 C 107.000 132.364,106.791 132.167,105.405 132.167 L 104.333 132.167 104.333 130.856 L 104.333 129.546 105.355 129.454 C 106.854 129.318,106.906 129.228,106.975 126.661 L 107.033 124.500 108.350 124.500 L 109.667 124.500 109.667 125.649 M132.167 125.550 C 132.167 127.052,132.022 127.000,136.200 127.000 L 139.833 127.000 139.807 128.375 L 139.781 129.750 139.682 128.619 C 139.552 127.130,139.671 127.172,135.542 127.169 L 132.000 127.167 132.000 126.003 C 132.000 124.683,132.040 124.716,130.333 124.616 C 129.651 124.575,129.767 124.554,130.792 124.531 L 132.167 124.500 132.167 125.550 M152.333 125.488 C 152.333 126.164,152.416 126.559,152.595 126.738 C 152.774 126.917,153.169 127.000,153.845 127.000 L 154.833 127.000 154.833 127.988 C 154.833 129.458,154.911 129.500,157.595 129.500 L 159.833 129.500 159.833 130.821 L 159.833 132.142 156.422 132.196 C 152.487 132.258,152.537 132.239,152.383 133.730 L 152.285 134.679 150.934 134.631 L 149.583 134.583 149.535 134.083 C 149.417 132.865,148.962 132.387,147.833 132.297 L 147.250 132.250 147.204 129.625 L 147.158 127.000 148.151 127.000 C 149.450 127.000,149.667 126.784,149.667 125.488 L 149.667 124.500 151.000 124.500 L 152.333 124.500 152.333 125.488 M207.667 133.333 L 207.667 134.667 205.042 134.634 L 202.417 134.602 204.701 134.509 C 207.344 134.402,207.367 134.389,207.468 133.002 C 207.569 131.594,207.667 131.756,207.667 133.333 M87.674 134.874 C 87.449 134.991,87.212 135.273,87.149 135.501 C 87.004 136.020,86.964 141.378,87.101 141.736 C 87.190 141.968,87.773 142.000,91.931 142.000 L 96.660 142.000 96.761 141.599 C 97.008 140.614,96.761 135.355,96.453 135.047 C 96.066 134.661,88.380 134.509,87.674 134.874 M235.592 134.932 C 235.364 135.160,235.333 135.666,235.372 138.557 L 235.417 141.917 239.125 141.962 L 242.833 142.006 242.833 138.537 C 242.833 136.060,242.776 135.009,242.633 134.867 C 242.297 134.531,235.934 134.590,235.592 134.932  M -25 0 L -5 0 L -5 20 L -25 20 Z M 405 0 L 425 0 L 425 20 L 405 20 Z" stroke="none" fill="#f42424" fill-rule="evenodd" transform="translate(30,203)"></path><path id="path4" d="M346.741 6.807 C 345.196 6.933,344.605 7.237,344.243 8.091 C 344.110 8.408,343.889 8.929,343.753 9.250 C 343.617 9.571,343.416 9.833,343.306 9.833 C 342.915 9.833,342.068 10.979,341.777 11.901 C 340.897 14.691,341.814 15.989,344.667 15.995 C 347.022 16.001,347.691 15.590,348.176 13.841 C 348.751 11.766,351.141 10.164,351.439 11.654 C 351.577 12.343,352.339 13.143,352.981 13.271 C 354.135 13.502,354.064 14.236,352.834 14.800 C 352.155 15.112,351.928 15.329,351.624 15.961 C 351.286 16.662,351.170 16.758,350.427 16.943 C 349.323 17.218,348.769 17.656,348.667 18.336 C 348.587 18.867,348.542 18.897,347.503 19.108 C 345.360 19.544,344.549 20.047,344.006 21.275 C 343.811 21.715,343.443 22.143,343.015 22.427 C 340.796 23.895,340.686 29.476,342.851 30.750 C 343.706 31.253,356.310 31.268,357.050 30.767 C 358.541 29.757,358.581 25.842,357.112 24.794 C 356.623 24.445,356.355 24.410,353.500 24.323 C 349.341 24.197,348.734 23.891,351.708 23.418 C 352.480 23.295,353.175 22.717,353.418 21.996 C 353.571 21.541,353.728 21.415,354.343 21.252 C 357.207 20.491,358.130 19.158,358.277 15.565 C 358.482 10.566,357.836 8.115,356.089 7.260 C 355.151 6.801,349.924 6.548,346.741 6.807 M372.053 6.808 C 370.362 6.943,369.933 7.226,369.240 8.662 C 368.944 9.277,368.585 9.773,368.383 9.848 C 366.951 10.377,366.619 11.855,366.540 18.047 C 366.449 25.144,366.568 25.743,368.458 27.626 C 368.665 27.832,368.833 28.064,368.833 28.142 C 368.833 28.221,369.011 28.476,369.227 28.710 C 369.444 28.944,369.783 29.363,369.981 29.641 C 371.191 31.339,378.046 31.808,379.754 30.308 C 380.072 30.028,380.333 29.700,380.333 29.579 C 380.333 29.257,381.161 28.327,381.594 28.163 C 382.963 27.642,383.326 26.086,383.442 20.250 C 383.604 12.055,383.313 9.965,381.958 9.585 C 381.171 9.364,380.971 9.153,380.667 8.216 C 380.246 6.923,380.041 6.852,376.500 6.770 C 374.804 6.731,372.803 6.748,372.053 6.808 M354.413 7.481 C 356.087 8.222,357.399 9.958,357.663 11.782 C 358.151 15.157,357.799 17.293,356.524 18.700 C 355.049 20.327,354.735 20.582,353.954 20.789 C 353.393 20.939,352.934 21.238,352.297 21.873 C 351.456 22.711,349.834 23.507,348.979 23.502 C 348.481 23.499,348.248 23.963,348.570 24.319 C 349.081 24.883,350.759 25.167,353.582 25.167 C 356.264 25.167,357.000 25.332,357.000 25.936 C 357.000 26.063,357.075 26.167,357.167 26.167 C 357.767 26.167,357.241 29.572,356.561 30.087 C 356.197 30.363,346.447 30.434,344.440 30.175 C 342.059 29.868,341.309 27.218,342.776 24.292 C 342.994 23.856,343.233 23.500,343.307 23.500 C 343.381 23.500,343.872 22.899,344.398 22.164 C 345.447 20.699,346.405 20.009,347.881 19.655 C 348.568 19.490,348.787 19.334,349.272 18.658 C 349.654 18.126,350.010 17.821,350.331 17.750 C 351.515 17.490,354.011 15.095,354.122 14.113 C 354.206 13.367,353.504 12.333,352.913 12.333 C 352.788 12.333,352.555 12.112,352.395 11.842 C 351.788 10.814,351.306 10.620,349.915 10.844 C 348.474 11.077,348.369 11.173,347.842 12.750 C 347.055 15.107,346.751 15.327,344.451 15.203 C 342.139 15.078,341.677 14.233,342.836 12.250 C 343.104 11.792,343.505 11.079,343.727 10.667 C 345.058 8.192,345.698 7.577,347.289 7.244 C 349.039 6.877,353.374 7.022,354.413 7.481 M377.746 7.175 C 379.035 7.361,379.612 7.760,380.175 8.856 C 380.347 9.189,380.817 9.670,381.221 9.925 C 382.717 10.872,382.907 11.834,382.912 18.500 C 382.918 25.449,382.875 25.571,378.965 29.633 C 377.562 31.090,373.103 30.948,371.394 29.392 C 371.107 29.131,370.571 28.675,370.203 28.380 C 369.836 28.085,369.363 27.485,369.153 27.047 C 368.942 26.609,368.635 26.152,368.469 26.033 C 367.471 25.313,367.008 23.061,367.004 18.917 C 366.999 13.942,367.450 12.484,370.083 8.955 C 371.412 7.175,373.841 6.610,377.746 7.175 M375.037 11.011 C 373.420 11.137,373.628 10.849,372.154 15.000 C 371.536 16.740,371.581 21.078,372.235 22.829 C 373.053 25.021,373.459 25.434,374.921 25.557 L 376.153 25.661 377.035 24.721 C 377.520 24.205,378.018 23.700,378.141 23.599 C 379.334 22.628,379.415 22.230,379.294 17.946 C 379.203 14.737,379.120 14.418,378.123 13.441 C 377.734 13.060,377.267 12.449,377.083 12.083 C 376.526 10.969,376.403 10.905,375.037 11.011 M376.824 13.523 C 377.012 13.778,377.167 14.034,377.167 14.093 C 377.167 14.415,377.905 15.156,378.317 15.246 C 378.944 15.384,379.001 15.700,378.997 19.063 C 378.995 21.973,378.970 22.084,378.292 22.254 C 377.823 22.372,376.838 23.355,376.828 23.714 C 376.809 24.388,376.282 24.608,374.915 24.511 L 373.584 24.417 373.337 23.750 C 372.921 22.624,372.993 14.741,373.432 13.417 C 373.753 12.447,373.784 12.414,374.431 12.327 C 374.799 12.277,375.358 12.085,375.675 11.899 L 376.250 11.562 376.365 12.310 C 376.429 12.722,376.635 13.268,376.824 13.523 M360.385 24.737 C 358.655 25.514,358.705 30.046,360.452 30.776 C 361.518 31.221,363.616 30.503,364.488 29.394 C 365.147 28.557,364.991 26.506,364.217 25.827 C 363.026 24.781,361.347 24.304,360.385 24.737 M362.083 25.882 L 362.750 26.259 362.800 27.501 C 362.857 28.942,362.694 29.346,361.895 29.727 C 360.621 30.334,360.000 29.673,360.000 27.711 C 360.000 25.688,360.682 25.090,362.083 25.882  M -25 0 L -5 0 L -5 20 L -25 20 Z M 405 0 L 425 0 L 425 20 L 405 20 Z" stroke="none" fill="#f85848" fill-rule="evenodd" transform="translate(490,203)"></path></g></svg>